<svg xmlns="http://www.w3.org/2000/svg" viewBox="0 0 453.54 102.95">
  <path fill="#ec6500" d="M39.24 0C24.45-.05 8.92 6.63 0 14.24v48.11c0 19.74 14.29 24.9 39.24 40.6 25-15.7 39.24-20.86 39.24-40.6V14.24C69.56 6.63 54.02-.05 39.24 0"/>
  <path fill="#fff" d="M39.24 39.34v12.77H55.6v10.21c0 2.53-.33 2.86-1.31 3.85-2.48 2.5-7.8 5.85-15.05 10.25-7.25-4.4-12.57-7.75-15-10.25-1-1-1.31-1.32-1.31-3.85V26.41a39.91 39.91 0 0 1 16.19-3.91h.34a39.91 39.91 0 0 1 16.19 3.91V12.54a50.16 50.16 0 0 0-16.19-2.9h-.34c-11 0-22.07 4.47-29.27 9.33v43.38c0 10.9 5.39 14.65 24.07 25.94l5.37 3.26 5.37-3.26c18.68-11.29 24.06-15 24.06-25.94v-23Z"/>
  <path fill="#ec6500" d="M333.2 49.79h11.1v26.66h10V14.24h-10V40.9h-11.1V14.24h-9.78v62.21h9.78V49.79Zm36-26.66h16.88v-8.89h-26.69v62.21h26.66v-8.89h-16.88V49.34h13.42v-8.88h-13.42V23.11Zm51.62 53.32c-1-2.31-1.07-4.53-1.07-7.56V59.3c0-6.49-1.6-11.2-6.49-13.24 4.36-2.05 6.4-6.22 6.4-12.62v-4.89c0-9.6-4.35-14.31-14.48-14.31H390.4v62.21h9.77V51.11h3.38c4.44 0 6.4 2.13 6.4 7.91v9.78c0 5.06.35 6 .89 7.64Zm-15.94-53.34c3.47 0 5 2 5 6.4v6.13c0 5-2.22 6.57-5.87 6.57h-3.82v-19.1Zm28.76 5.42c0-4.44 1.95-6.13 5.06-6.13s5.07 1.69 5.07 6.13v33.58c0 4.44-2 6.13-5.07 6.13s-5.06-1.69-5.06-6.13V28.55Zm-9.78 33c0 9.95 5.25 15.64 14.84 15.64s14.84-5.69 14.84-15.64V29.17c0-9.95-5.24-15.64-14.84-15.64s-14.84 5.69-14.84 15.64v32.35Z"/>
  <path fill="#002341" d="M125 50.68h4.45v11.43c0 4.44-2 6-5.07 6s-5.07-1.6-5.07-6V28.55c0-4.44 2-6.13 5.07-6.13s5.07 1.69 5.07 6.13v6.66h9.24v-6c0-9.95-5-15.64-14.58-15.64s-14.57 5.69-14.57 15.64v32.35c0 9.95 5 15.64 14.57 15.64s14.58-5.69 14.58-15.64V41.79H125v8.89Zm40.33-36.44h-14.27l-9.95 62.21h9l1.69-11.29h12l1.69 11.29h9.86l-9.95-62.21Zm-7.64 11 4.71 31.46H153l4.71-31.46Zm19.92 3.91c0 17.77 19.11 20.17 19.11 33 0 4.44-2 6-5.07 6s-5.06-1.6-5.06-6v-4.44h-9.25v3.82c0 9.95 5 15.64 14.58 15.64s14.57-5.69 14.57-15.64c0-17.77-19.11-20.17-19.11-33 0-4.44 1.78-6.13 4.89-6.13s4.89 1.69 4.89 6.13v2.58h9.24v-2c0-9.95-4.89-15.64-14.39-15.64s-14.4 5.69-14.4 15.64Zm31.45-6h10.22v53.32h9.77V23.11h10.22v-8.89H209.1v8.89Zm64.15 53.32c-1-2.31-1.07-4.53-1.07-7.56v-9.59c0-6.49-1.6-11.2-6.48-13.24 4.35-2.05 6.39-6.22 6.39-12.62v-4.89c0-9.6-4.35-14.31-14.48-14.31h-14.71v62.21h9.77V51.11H256c4.44 0 6.4 2.13 6.4 7.91v9.78c0 5.06.35 6 .89 7.64Zm-15.87-53.36c3.47 0 5 2 5 6.4v6.13c0 5-2.22 6.57-5.87 6.57h-3.82v-19.1Zm28.76 5.42c0-4.44 1.95-6.13 5.06-6.13s5.07 1.69 5.07 6.13v33.58c0 4.44-2 6.13-5.07 6.13s-5.06-1.69-5.06-6.13V28.55Zm-9.78 33c0 9.95 5.25 15.64 14.84 15.64S306 71.47 306 61.52V29.17c0-9.95-5.24-15.64-14.84-15.64s-14.84 5.69-14.84 15.64v32.35Z"/>
</svg>
